<svg width="200" height="280" xmlns="http://www.w3.org/2000/svg">
  <defs>
    <linearGradient id="purpleGrad" x1="0%" y1="0%" x2="100%" y2="100%">
      <stop offset="0%" style="stop-color:#4a148c;stop-opacity:1" />
      <stop offset="50%" style="stop-color:#7b1fa2;stop-opacity:1" />
      <stop offset="100%" style="stop-color:#4a148c;stop-opacity:1" />
    </linearGradient>
    <filter id="glow">
      <feGaussianBlur stdDeviation="3" result="coloredBlur"/>
      <feMerge>
        <feMergeNode in="coloredBlur"/>
        <feMergeNode in="SourceGraphic"/>
      </feMerge>
    </filter>
  </defs>
  
  <!-- Card background -->
  <rect x="10" y="10" width="180" height="260" rx="8" fill="url(#purpleGrad)" stroke="#9c27b0" stroke-width="2"/>
  
  <!-- Neon border -->
  <rect x="15" y="15" width="170" height="250" rx="6" fill="none" stroke="#00ffaa" stroke-width="1" filter="url(#glow)" opacity="0.8"/>
  
  <!-- Pattern -->
  <g opacity="0.1">
    <rect x="20" y="20" width="20" height="20" fill="#00ffaa"/>
    <rect x="60" y="20" width="20" height="20" fill="#00ffaa"/>
    <rect x="100" y="20" width="20" height="20" fill="#00ffaa"/>
    <rect x="140" y="20" width="20" height="20" fill="#00ffaa"/>
    <rect x="180" y="20" width="20" height="20" fill="#00ffaa"/>
    
    <rect x="40" y="40" width="20" height="20" fill="#00ffaa"/>
    <rect x="80" y="40" width="20" height="20" fill="#00ffaa"/>
    <rect x="120" y="40" width="20" height="20" fill="#00ffaa"/>
    <rect x="160" y="40" width="20" height="20" fill="#00ffaa"/>
    
    <rect x="20" y="60" width="20" height="20" fill="#00ffaa"/>
    <rect x="60" y="60" width="20" height="20" fill="#00ffaa"/>
    <rect x="100" y="60" width="20" height="20" fill="#00ffaa"/>
    <rect x="140" y="60" width="20" height="20" fill="#00ffaa"/>
    <rect x="180" y="60" width="20" height="20" fill="#00ffaa"/>
    
    <rect x="40" y="80" width="20" height="20" fill="#00ffaa"/>
    <rect x="80" y="80" width="20" height="20" fill="#00ffaa"/>
    <rect x="120" y="80" width="20" height="20" fill="#00ffaa"/>
    <rect x="160" y="80" width="20" height="20" fill="#00ffaa"/>
    
    <rect x="20" y="100" width="20" height="20" fill="#00ffaa"/>
    <rect x="60" y="100" width="20" height="20" fill="#00ffaa"/>
    <rect x="100" y="100" width="20" height="20" fill="#00ffaa"/>
    <rect x="140" y="100" width="20" height="20" fill="#00ffaa"/>
    <rect x="180" y="100" width="20" height="20" fill="#00ffaa"/>
    
    <rect x="40" y="120" width="20" height="20" fill="#00ffaa"/>
    <rect x="80" y="120" width="20" height="20" fill="#00ffaa"/>
    <rect x="120" y="120" width="20" height="20" fill="#00ffaa"/>
    <rect x="160" y="120" width="20" height="20" fill="#00ffaa"/>
    
    <rect x="20" y="140" width="20" height="20" fill="#00ffaa"/>
    <rect x="60" y="140" width="20" height="20" fill="#00ffaa"/>
    <rect x="100" y="140" width="20" height="20" fill="#00ffaa"/>
    <rect x="140" y="140" width="20" height="20" fill="#00ffaa"/>
    <rect x="180" y="140" width="20" height="20" fill="#00ffaa"/>
    
    <rect x="40" y="160" width="20" height="20" fill="#00ffaa"/>
    <rect x="80" y="160" width="20" height="20" fill="#00ffaa"/>
    <rect x="120" y="160" width="20" height="20" fill="#00ffaa"/>
    <rect x="160" y="160" width="20" height="20" fill="#00ffaa"/>
    
    <rect x="20" y="180" width="20" height="20" fill="#00ffaa"/>
    <rect x="60" y="180" width="20" height="20" fill="#00ffaa"/>
    <rect x="100" y="180" width="20" height="20" fill="#00ffaa"/>
    <rect x="140" y="180" width="20" height="20" fill="#00ffaa"/>
    <rect x="180" y="180" width="20" height="20" fill="#00ffaa"/>
    
    <rect x="40" y="200" width="20" height="20" fill="#00ffaa"/>
    <rect x="80" y="200" width="20" height="20" fill="#00ffaa"/>
    <rect x="120" y="200" width="20" height="20" fill="#00ffaa"/>
    <rect x="160" y="200" width="20" height="20" fill="#00ffaa"/>
    
    <rect x="20" y="220" width="20" height="20" fill="#00ffaa"/>
    <rect x="60" y="220" width="20" height="20" fill="#00ffaa"/>
    <rect x="100" y="220" width="20" height="20" fill="#00ffaa"/>
    <rect x="140" y="220" width="20" height="20" fill="#00ffaa"/>
    <rect x="180" y="220" width="20" height="20" fill="#00ffaa"/>
    
    <rect x="40" y="240" width="20" height="20" fill="#00ffaa"/>
    <rect x="80" y="240" width="20" height="20" fill="#00ffaa"/>
    <rect x="120" y="240" width="20" height="20" fill="#00ffaa"/>
    <rect x="160" y="240" width="20" height="20" fill="#00ffaa"/>
  </g>
  
  <!-- Center logo area -->
  <circle cx="100" cy="140" r="30" fill="rgba(0, 255, 170, 0.2)" stroke="#00ffaa" stroke-width="1"/>
  <text x="100" y="145" text-anchor="middle" fill="#00ffaa" font-family="Arial" font-size="24" font-weight="bold">A♠</text>
</svg>
